<?xml version="1.0" encoding="utf-8"?>
<!-- Generator: Adobe Illustrator 26.1.0, SVG Export Plug-In . SVG Version: 6.00 Build 0)  -->
<svg version="1.1" id="Layer_1" xmlns="http://www.w3.org/2000/svg" xmlns:xlink="http://www.w3.org/1999/xlink" x="0px" y="0px"
	 viewBox="0 0 485.74 485.74" style="enable-background:new 0 0 485.74 485.74;" xml:space="preserve">
<style type="text/css">
	.st0{fill:#8EB38B;}
	.st1{fill:none;stroke:#8EB38B;stroke-width:9;stroke-miterlimit:10;}
</style>
<g>
	<path class="st0" d="M240.77,152.28c-2.44-0.19-7.12-0.88-9.17-1.37c-2.83,8.3-6.44,30.55-9.47,40.6
		c-4,13.47-12.79,19.91-23.42,19.91c-8.1,0-14.15-5.27-14.15-12.3c0-4.49,2.83-7.61,7.81-7.71c2.73,3.61,6.83,7.12,9.17,7.12
		c3.12,0,4.98-4.59,7.12-13.86c3.81-16.49,4.59-21.67,6.05-26.25c-7.81,3.71-19.03,6.83-27.72,6.83c-8.78,0-14.35-4.98-14.35-14.64
		c0-11.81,10.05-22.74,20.1-22.74c7.32,0,15.81,2.15,22.84,4.59c15.23,5.27,22.15,6.93,28.01,7.9c4.68-14.35,12.1-17.66,17.37-17.66
		c8.3,0,13.57,7.12,13.57,13.27c0,6.73-7.42,13.57-20.89,16.2l-2.54,18.25c7.03-6.44,13.08-9.56,16.88-9.56
		c3.71,0,5.66,2.34,5.66,5.76c0,3.03-0.88,6.05-2.34,9.76c-1.66,4.29-4.88,12.2-4.88,14.64c0,1.07,0.49,1.46,1.37,1.46
		c1.76,0,7.81-4.78,14.15-13.86c1.85,0,3.81,1.27,3.81,3.22c0,6.15-16.59,23.23-25.57,23.23c-5.76,0-7.71-2.54-7.71-7.91
		c0-6.44,5.07-17.67,5.07-19.81c0-0.78-0.29-1.56-1.37-1.56c-1.66,0-4,1.07-6.64,3.32c-0.98,6.93-1.66,14.25-1.76,23.33
		c-0.88,0.98-2.54,1.37-4.49,1.37c-5.66,0-9.86-5.17-9.96-10.25c0-3.03,0.78-6.54,3.22-10.74
		C237.94,170.04,239.21,159.7,240.77,152.28z M212.47,151.69c1.66,0,3.42,0.49,4.1,1.46c0.59-1.76,1.76-4,3.03-5.27
		c-20.2-6.93-24.2-8.1-28.79-8.1c-3.71,0-6.15,2.44-6.15,6.34c0,5.08,3.61,7.42,9.47,7.42
		C201.15,153.55,210.13,151.69,212.47,151.69z M259.32,132.27c-1.46,0-2.83,2.64-4.1,9.27c6.25-0.59,9.37-2.15,9.37-4.2
		C264.59,135.59,261.66,132.27,259.32,132.27z"/>
	<path class="st0" d="M277.96,187.61c0-14.74,12-29.77,21.47-29.77c6.73,0,10.44,3.22,10.44,10.05c0,8.2-4.78,14.54-18.15,17.57
		c0,4.39,0.88,6.83,4.68,6.83c6.64,0,15.22-5.66,20.79-14.15c2.34,0.1,3.71,1.66,3.71,3.22c0,7.22-16.3,22.74-28.99,22.74
		C282.35,204.1,277.96,198.15,277.96,187.61z M296.99,168.09c-1.37,0-4,3.32-4.68,10.15c5.46-0.98,6.64-4,6.64-6.93
		C298.94,169.26,298.16,168.09,296.99,168.09z"/>
	<path class="st0" d="M89.45,292.72c1.66,0,3.12,0.49,4,1.56v1.85c0,13.27,6.05,19.13,12.59,19.13c3.71,0,6.64-3.42,6.64-8.39
		c0-3.22-0.59-5.86-9.66-17.37c-5.17-6.64-6.83-12.1-6.83-18.15c0-10.83,8.39-22.45,20.69-22.45c10.54,0,14.74,6.05,14.74,11.91
		c0,3.81-2.05,6.93-4.2,8c-5.17-4.29-8.78-6.25-12.39-6.25c-2.15,0-3.9,1.85-3.9,4.68c0,3.12,1.66,6.93,7.32,14.83
		c8.2,11.61,9.56,15.71,9.56,21.47c0,11.03-10.15,24.2-26.55,24.2c-15.03,0-22.64-8.88-22.64-19.62
		C78.81,301.02,82.62,292.72,89.45,292.72z"/>
	<path class="st0" d="M135.22,293.31c0-5.76,8.69-16.01,14.74-16.01c4.49,0,4.88,2.44,4.88,6.25c0,2.54-1.66,6.64-3.42,10.74
		c-2.73,6.73-4,9.86-4,12.1c0,1.07,0.49,1.46,1.37,1.46c1.37,0,5.76-3.12,12.3-12.39c1.85,0,3.81,1.56,3.81,3.51
		c0,6.15-15.52,22.64-24.5,22.64c-5.76,0-7.71-2.54-7.71-7.9c0-4.29,1.07-8.3,3.51-14.35C135.42,297.5,135.22,295.26,135.22,293.31z
		 M153.57,251.54c3.9,0,8.3,4.29,8.3,7.32c0,2.34-1.85,6.15-6.54,11.91c-3.81,0-6.54-2.83-6.54-8.49
		C148.79,254.37,150.45,251.54,153.57,251.54z"/>
	<path class="st0" d="M148.79,370.46c0-2.73,9.88-40.32,10.64-47.97l0.98-28.3c0.59-16.69,9.47-24.79,16.4-24.79
		c4,0,6.54,1.85,6.54,4.68c0,0.29,0,0.68-0.1,1.07c-3.61,3.22-6.83,8-8.88,16.2c6.25-9.27,12.49-13.96,16.59-13.96
		c4.78,0,7.71,3.61,7.71,8.78c0,6.05-5.08,15.42-11.52,22.93c6.05-0.68,10.15-2.15,13.96-4.2c1.76,0.78,2.93,2.54,2.93,4.59
		c0,5.76-8.2,11.91-18.84,11.91c-6.15,0-10.44-1.37-12-3.9c-1.37,17.67-9.35,54.5-13.94,54.5S148.79,375.34,148.79,370.46z
		 M173.58,310.48c1.85-0.2,3.61-0.39,4.88-0.59c1.76-3.42,4.49-10.44,4.49-12.59c0-2.05-0.68-2.73-1.95-2.73
		c-1.27,0-3.12,1.37-6.83,5.37C173.97,303.65,173.77,307.17,173.58,310.48z"/>
	<path class="st0" d="M233.6,292.72c1.66,0,3.12,0.49,4,1.56v1.85c0,13.27,6.05,19.13,12.59,19.13c3.71,0,6.64-3.42,6.64-8.39
		c0-3.22-0.59-5.86-9.66-17.37c-5.17-6.64-6.83-12.1-6.83-18.15c0-10.83,8.39-22.45,20.69-22.45c10.54,0,14.74,6.05,14.74,11.91
		c0,3.81-2.05,6.93-4.2,8c-5.17-4.29-8.78-6.25-12.39-6.25c-2.15,0-3.9,1.85-3.9,4.68c0,3.12,1.66,6.93,7.32,14.83
		c8.2,11.61,9.56,15.71,9.56,21.47c0,11.03-10.15,24.2-26.55,24.2c-15.03,0-22.64-8.88-22.64-19.62
		C222.96,301.02,226.77,292.72,233.6,292.72z"/>
	<path class="st0" d="M300.16,248.9c4.2,0,6.34,1.95,6.34,6.93c0,4.29-2.15,9.95-9.76,22.54l-2.34,9.17
		c7.03-6.44,13.08-9.56,16.88-9.56c3.71,0,5.66,2.34,5.66,5.76c0,3.03-0.88,6.05-2.34,9.76c-1.66,4.29-4.88,12.2-4.88,14.64
		c0,1.07,0.49,1.46,1.37,1.46c1.76,0,7.81-4.78,14.15-13.86c1.85,0,3.81,1.27,3.81,3.22c0,6.15-16.59,23.23-25.57,23.23
		c-5.76,0-7.71-2.54-7.71-7.91c0-6.44,5.08-17.67,5.08-19.81c0-0.78-0.29-1.56-1.37-1.56c-1.66,0-4,1.07-6.64,3.32
		c-0.98,6.93-1.66,14.25-1.76,23.33c-0.88,0.98-2.54,1.37-4.49,1.37c-5.66,0-9.86-5.17-9.96-10.25c0-3.03,0.78-6.54,3.22-10.74
		C283.67,264.32,287.67,248.9,300.16,248.9z"/>
	<path class="st0" d="M357.74,288.23c0,4.68-0.98,8.49-3.03,13.86c0.29,0.29,0.98,0.68,1.95,0.68c2.83,0,5.66-2.25,8.88-7.42
		c1.76,0,3.81,1.46,3.81,3.51c0,4.1-6.54,13.27-14.83,13.27c-1.76,0-2.83-0.29-3.9-0.98c-4.68,6.34-9.86,10.05-16.69,10.05
		c-6.93,0-12.39-4.78-12.39-14.35c0-16.2,10.74-31.23,21.08-31.23c2.54,0,5.66,1.07,5.76,4.29c0.98-0.98,1.85-1.37,3.42-1.37
		C355.79,278.57,357.74,283.84,357.74,288.23z M338.91,309.41c2.34,0,4.68-2.24,6.44-6.64c-0.78-3.03-1.07-5.86-1.07-8.49
		c0-3.32,0.68-8.49,2.15-11.32c-6.05,2.83-11.03,12.3-11.03,20.3C335.39,308.04,337.15,309.41,338.91,309.41z"/>
	<path class="st0" d="M358.72,336.74c0-2.73,1.46-7.71,5.08-14.25l0.98-28.3c0.58-16.69,9.47-24.79,16.4-24.79
		c4,0,6.54,1.85,6.54,4.68c0,0.29,0,0.68-0.1,1.07c-3.61,3.22-6.83,8-8.88,16.2c6.25-9.27,12.49-13.96,16.59-13.96
		c4.78,0,7.71,3.61,7.71,8.78c0,6.05-5.07,15.42-11.52,22.93c6.05-0.68,10.15-2.15,13.96-4.2c1.76,0.78,2.93,2.54,2.93,4.59
		c0,5.76-8.2,11.91-18.84,11.91c-6.15,0-10.44-1.37-12-3.9c-1.37,17.67-3.81,27.91-8.39,27.91S358.72,341.62,358.72,336.74z
		 M377.95,310.48c1.85-0.2,3.61-0.39,4.88-0.59c1.76-3.42,4.49-10.44,4.49-12.59c0-2.05-0.68-2.73-1.95-2.73
		c-1.27,0-3.12,1.37-6.83,5.37C378.34,303.65,378.14,307.17,377.95,310.48z"/>
</g>
<circle class="st1" cx="242.87" cy="242.87" r="238.37"/>
<path class="st0" d="M271.02,367.74c-8.83-9.72-96.31-5.11-96.31-5.11l-13.28-4.18c0,0,0,0-10.21,6.98
	c-10.21,6.99-26.67-7.32-42.63,3.78c-15.95,11.1,28.77,20.79,45.42,15.93c16.65-4.85,26.31,11.01,53.37,15.87
	c27.06,4.85,47.47-0.89,20.64-12.21c-27.96-11.81-5.15-15.68,3.37-17.74C243.34,368.17,279.84,377.45,271.02,367.74z M182.95,380.6
	c-3.8-0.82-3.76-2.81-2.29-4.93c3.27-4.74,10.01-5.45,14.43-1.76l3.79,3.17C208.96,385.5,192.7,382.69,182.95,380.6z"/>
</svg>
